<svg width="22" height="22" viewBox="0 0 22 22" fill="none" xmlns="http://www.w3.org/2000/svg">
<path d="M9.17292 18.5827H4.75563C3.77979 18.5827 2.98871 17.7916 2.98871 16.8158V10.8939C2.98871 10.4418 3.162 10.0069 3.47293 9.67873L9.65714 3.15096C10.3541 2.41532 11.5256 2.41532 12.2225 3.15096L18.4067 9.67873C18.7177 10.0069 18.891 10.4418 18.891 10.8939V16.8158C18.891 17.7916 18.0999 18.5827 17.124 18.5827H12.7068M9.17292 18.5827V13.7237C9.17292 13.4797 9.37069 13.282 9.61465 13.282H12.265C12.509 13.282 12.7068 13.4797 12.7068 13.7237V18.5827M9.17292 18.5827H12.7068" stroke="#1F1F22" stroke-width="1.32519"/>
</svg>
